<?xml version="1.0" encoding="UTF-8"?>
<!DOCTYPE svg PUBLIC "-//W3C//DTD SVG 1.1//EN" "http://www.w3.org/Graphics/SVG/1.1/DTD/svg11.dtd">
<!-- Creator: CorelDRAW X7 -->
<svg xmlns="http://www.w3.org/2000/svg" xml:space="preserve" width="210mm" height="209.221mm" version="1.1" style="shape-rendering:geometricPrecision; text-rendering:geometricPrecision; image-rendering:optimizeQuality; fill-rule:evenodd; clip-rule:evenodd"
viewBox="0 0 3144606 3132937"
 xmlns:xlink="http://www.w3.org/1999/xlink">
 <defs>
  <style type="text/css">
   <![CDATA[
    .fil0 {fill:#D1D5DB}
   ]]>
  </style>
 </defs>
 <g id="Layer_x0020_1">
  <metadata id="CorelCorpID_0Corel-Layer"/>
  <path class="fil0" d="M3144606 1572302c0,-868450 -703851,-1572302 -1572304,-1572302 -868450,0 -1572302,703852 -1572302,1572302 0,737019 507928,1356112 1192739,1526240l0 -1045950 -324287 0 0 -480290 324287 0 0 -206978c0,-534951 241988,-783080 767725,-783080 99497,0 271468,19653 342099,39307l1 434841c-36850,-3685 -101340,-6142 -181797,-6142 -257957,0 -357454,97655 -357454,351311l0 170741 513455 0 -88443 480290 -425627 0 0 1080345c778783,-93970 1381908,-756671 1381908,-1560635l0 0z"/>
 </g>
</svg>
