<?xml version="1.0" encoding="UTF-8"?>
<!DOCTYPE svg PUBLIC "-//W3C//DTD SVG 1.1//EN" "http://www.w3.org/Graphics/SVG/1.1/DTD/svg11.dtd">
<!-- Creator: CorelDRAW X7 -->
<svg xmlns="http://www.w3.org/2000/svg" xml:space="preserve" width="51.2659mm" height="51.3279mm" version="1.1" style="shape-rendering:geometricPrecision; text-rendering:geometricPrecision; image-rendering:optimizeQuality; fill-rule:evenodd; clip-rule:evenodd"
viewBox="0 0 285 286"
 xmlns:xlink="http://www.w3.org/1999/xlink">
 <defs>
  <style type="text/css">
   <![CDATA[
    .fil0 {fill:#507667}
   ]]>
  </style>
 </defs>
 <g id="Layer_x0020_1">
  <metadata id="CorelCorpID_0Corel-Layer"/>
  <path class="fil0" d="M243 37c-13,0 -26,0 -35,2 -9,1 -18,5 -26,10 -6,4 -21,19 -23,23 0,0 0,-1 0,-2 0,-7 -4,-18 -8,-26 -5,-11 -15,-23 -26,-30 -6,-4 -15,-8 -24,-11l-9 -3 -1 3c-12,27 -16,48 -13,67 3,12 9,27 17,38 6,8 6,7 0,5 -9,-4 -15,-5 -24,-5 -14,-1 -27,3 -39,9 -7,4 -13,9 -21,17 -6,7 -11,13 -11,14 0,1 18,17 23,20 19,14 40,19 61,16 6,-1 18,-4 23,-7l3 -2 -1 4c-4,8 -7,16 -8,27 -2,18 2,33 12,50 4,7 10,14 18,22l7 8 1 -1c3,-2 13,-11 18,-17 4,-4 6,-7 9,-10 9,-15 12,-28 12,-43 -1,-10 -4,-20 -9,-29 -5,-7 -18,-20 -24,-23 -2,-1 3,0 9,2 14,4 28,16 36,31l1 3 3 1c5,3 15,6 22,7 10,2 25,1 36,-2 10,-2 33,-11 33,-12 0,-1 -4,-14 -6,-19 -8,-18 -21,-32 -38,-40 -20,-9 -43,-9 -67,2 -4,1 -8,3 -10,4 -2,1 -3,2 -3,1 0,0 1,-2 3,-4 12,-15 34,-23 57,-20l3 0 4 -4c6,-6 10,-11 14,-21 4,-9 6,-17 7,-28 0,-5 -1,-26 -1,-26 0,0 -3,0 -5,-1l0 0zm-28 30c-10,6 -19,13 -28,23 -10,10 -21,26 -32,46 -7,11 -9,16 -10,16 -1,1 3,-20 6,-32 2,-8 8,-25 10,-30 7,-14 17,-26 27,-32l3 -2 -3 4c-6,7 -12,17 -16,28 -1,4 -2,6 -1,5 12,-16 24,-25 40,-28 3,0 9,-1 9,-1 0,0 -2,2 -5,3l0 0zm33 111c-1,1 -16,0 -25,-2 -6,-1 -22,-6 -30,-10 -8,-3 -21,-7 -28,-9l-6 -1 4 -1c21,-3 38,-2 54,3 11,4 22,10 29,17 2,2 3,3 2,3l0 0zm-111 -97c6,9 7,17 6,29 0,5 -3,18 -4,23 0,0 0,-3 0,-7 0,-9 -2,-23 -4,-31 -1,-10 -4,-16 -8,-25l-2 -4 5 5c4,5 6,6 7,10l0 0zm-16 11c5,12 9,28 11,42 0,4 0,7 0,7 0,0 -1,-2 -2,-5 -1,-3 -3,-10 -5,-15 -7,-18 -10,-29 -11,-38 0,-3 0,-5 0,-5 0,0 5,10 7,14l0 0zm14 65c-1,0 -34,-1 -38,-1 -12,-1 -25,-6 -33,-11l-2 -1 6 -1c9,-2 24,-2 33,0 11,2 21,6 29,11 4,2 5,3 5,3zm-1 39c0,3 5,29 6,34 0,0 0,0 1,0 0,0 0,-1 1,-4 3,-8 4,-17 4,-27 0,-8 -3,-22 -6,-30l-2 -5 -1 1c-3,8 -4,20 -3,31z"/>
 </g>
</svg>
