<?xml version="1.0" encoding="UTF-8"?>
<!DOCTYPE svg PUBLIC "-//W3C//DTD SVG 1.1//EN" "http://www.w3.org/Graphics/SVG/1.1/DTD/svg11.dtd">
<!-- Creator: CorelDRAW X7 -->
<svg xmlns="http://www.w3.org/2000/svg" xml:space="preserve" width="210.117mm" height="210.07mm" version="1.1" style="shape-rendering:geometricPrecision; text-rendering:geometricPrecision; image-rendering:optimizeQuality; fill-rule:evenodd; clip-rule:evenodd"
viewBox="0 0 7949 7947"
 xmlns:xlink="http://www.w3.org/1999/xlink">
 <defs>
  <style type="text/css">
   <![CDATA[
    .fil0 {fill:#D1D5DB}
   ]]>
  </style>
 </defs>
 <g id="Layer_x0020_1">
  <metadata id="CorelCorpID_0Corel-Layer"/>
  <path class="fil0" d="M3975 1936c-1127,0 -2037,910 -2037,2038 0,1128 910,2037 2037,2037 1128,0 2038,-909 2038,-2037 0,-1128 -910,-2038 -2038,-2038zm0 3362c-728,0 -1324,-594 -1324,-1324 0,-731 594,-1325 1324,-1325 731,0 1325,594 1325,1325 0,730 -596,1324 -1325,1324zm2597 -3445c0,264 -213,475 -476,475 -264,0 -475,-213 -475,-475 0,-263 213,-476 475,-476 263,0 476,213 476,476zm1349 482c-30,-637 -175,-1200 -642,-1665 -464,-465 -1028,-610 -1665,-642 -656,-37 -2623,-37 -3279,0 -635,30 -1199,175 -1665,640 -467,465 -610,1029 -642,1665 -37,656 -37,2623 0,3279 30,637 175,1201 642,1665 466,465 1028,610 1665,642 656,38 2623,38 3279,0 637,-30 1201,-175 1665,-642 465,-464 610,-1028 642,-1665 37,-656 37,-2621 0,-3277zm-847 3981c-139,348 -407,616 -756,756 -523,207 -1764,159 -2343,159 -578,0 -1821,46 -2342,-159 -348,-139 -616,-406 -756,-756 -207,-523 -159,-1764 -159,-2342 0,-578 -46,-1822 159,-2343 139,-348 406,-615 756,-755 523,-208 1764,-160 2342,-160 579,0 1822,-46 2343,160 348,138 615,406 756,755 207,523 159,1765 159,2343 0,578 48,1821 -159,2342z"/>
 </g>
</svg>
