<?xml version="1.0" encoding="UTF-8"?>
<!DOCTYPE svg PUBLIC "-//W3C//DTD SVG 1.1//EN" "http://www.w3.org/Graphics/SVG/1.1/DTD/svg11.dtd">
<!-- Creator: CorelDRAW X7 -->
<svg xmlns="http://www.w3.org/2000/svg" xml:space="preserve" width="290.09mm" height="124.605mm" version="1.1" style="shape-rendering:geometricPrecision; text-rendering:geometricPrecision; image-rendering:optimizeQuality; fill-rule:evenodd; clip-rule:evenodd"
viewBox="0 0 8070 3467"
 xmlns:xlink="http://www.w3.org/1999/xlink">
 <defs>
  <style type="text/css">
   <![CDATA[
    .fil0 {fill:#FFFCED;fill-rule:nonzero}
   ]]>
  </style>
 </defs>
 <g id="Layer_x0020_1">
  <metadata id="CorelCorpID_0Corel-Layer"/>
  <g id="_2178229063232">
   <path class="fil0" d="M3369 2478c-33,0 -63,-20 -60,-56 9,-85 92,-282 131,-356l99 -184c21,-49 71,-125 138,-125 21,0 32,18 22,69 -10,54 -50,124 -76,177 49,-55 108,-143 185,-138 28,1 48,16 64,32 16,17 31,35 46,55 22,32 51,57 86,75 9,3 20,4 31,4 35,0 62,-19 79,-57 5,-9 11,-13 20,-13 34,0 40,15 37,44 -23,76 -78,114 -166,114 -76,0 -145,-27 -181,-97 -113,-216 -347,328 -397,425 -7,15 -43,31 -58,31zm-1676 294c200,-10 488,-218 700,-424 3,66 24,129 63,194 23,38 50,71 93,116l35 37 6 -4c18,-12 65,-55 93,-84 24,-26 34,-38 45,-57 46,-75 66,-143 63,-220 -2,-52 -19,-105 -47,-151 -23,-36 -90,-102 -120,-118 -12,-5 13,0 42,9 75,26 145,85 186,161l9 16 16 8c23,12 77,29 110,34 54,10 130,6 189,-8 49,-12 168,-56 170,-63 1,-4 -23,-72 -34,-97 -42,-96 -107,-166 -197,-209 -99,-48 -220,-45 -345,9 -17,7 -39,18 -49,23 -11,6 -18,9 -17,7 0,-2 8,-13 17,-25 60,-76 172,-115 294,-101l16 1 20 -20c31,-31 50,-60 71,-108 21,-47 31,-90 35,-148 1,-24 -2,-131 -5,-133 -1,-1 -13,-2 -27,-3 -67,-5 -132,-2 -176,7 -46,9 -97,29 -136,54 -32,20 -107,96 -117,118 -1,2 -2,-3 -3,-12 -1,-37 -17,-94 -38,-135 -28,-57 -80,-114 -138,-152 -29,-20 -75,-41 -121,-57l-47 -16 -5 13c-63,142 -82,249 -66,350 11,63 44,138 86,192 33,43 33,40 1,28 -49,-20 -78,-26 -127,-27 -71,-1 -135,15 -199,50 -38,21 -67,45 -106,87 -33,35 -60,66 -60,70 0,5 95,88 120,106 98,69 205,97 314,81 32,-4 93,-23 119,-36l16 -9 -8 17c-12,23 -21,48 -27,74 -95,99 -201,189 -315,270 -77,54 -313,192 -425,142 -48,-22 -77,-59 -80,-106 -10,-120 17,-230 58,-337 119,-302 240,-554 446,-830 75,-101 180,-225 316,-368 67,-64 127,-133 181,-206 5,-11 6,-22 5,-30 -8,-62 -84,-68 -132,-37 -90,55 -168,123 -235,203 -97,102 -180,202 -249,298 -238,304 -410,625 -516,964 -40,123 -52,250 -34,381 12,62 44,114 98,158 52,35 108,53 168,53zm-1587 144l867 -1265c228,0 373,-13 602,-12 32,0 94,-4 94,-41 0,-42 -34,-40 -63,-43 -181,-16 -389,-13 -570,-12l714 -1094c514,-32 954,-19 1477,16 26,2 40,-14 40,-44 0,-30 -14,-43 -40,-45 -430,-43 -823,-67 -1384,-67l106 -192c48,-87 -81,-112 -151,-117 -23,-2 -43,11 -62,34l-179 280c-144,3 -1004,32 -1172,93 -44,16 -50,61 -23,98 12,15 61,39 95,34 275,-49 730,-79 1010,-77l-662 1069c-246,0 -420,2 -521,5 -78,0 -81,154 35,148 143,-8 267,-26 412,-26l-727 1229c-24,41 76,67 102,29zm2463 -885c-2,2 -176,-2 -196,-5 -63,-6 -130,-29 -169,-56l-9 -6 30 -5c45,-9 126,-8 170,1 55,11 107,30 150,55 21,12 25,15 24,16zm-13 -81c0,0 -4,-12 -9,-27 -6,-15 -18,-50 -29,-78 -35,-91 -51,-147 -56,-197 -1,-14 -2,-25 -2,-25 1,-1 27,50 37,72 27,64 48,143 56,220 2,19 4,35 3,35zm66 57c-5,6 14,-104 30,-169 10,-40 40,-126 54,-154 34,-70 88,-134 139,-166l12 -8 -15 18c-32,38 -62,92 -79,145 -8,24 -10,33 -6,28 58,-81 125,-127 204,-143 17,-3 47,-7 49,-5 0,0 -12,7 -26,14 -52,29 -99,67 -148,119 -50,53 -105,133 -165,239 -31,54 -46,79 -49,82zm-27 401c-5,-25 -30,-158 -31,-175 -6,-58 1,-121 19,-158l3 -8 11 28c16,40 31,114 31,154 0,51 -7,99 -21,140l-8 21 -4 -2zm560 -269c-4,5 -86,-2 -130,-11 -30,-6 -114,-32 -158,-49 -39,-16 -106,-38 -141,-46l-31 -8 18 -3c109,-17 197,-11 282,17 56,18 113,51 150,86 6,7 11,13 10,14zm-565 -270c-1,-45 -9,-117 -17,-159 -11,-49 -22,-83 -44,-129l-9 -19 25 27c22,22 28,30 38,48 26,49 34,91 29,153 -2,25 -14,90 -20,117 0,1 -1,-16 -2,-38zm-1321 1126c958,-164 1970,-193 2966,-243 24,-1 29,-17 3,-17 -638,16 -1730,58 -2054,73 -308,15 -638,43 -948,66 -201,15 -195,160 33,121zm1909 -261c343,-10 723,-45 1080,-56 983,-32 2033,-21 3004,89 129,15 310,44 460,52 32,2 126,-21 23,-54 -785,-246 -2646,-174 -3484,-125 -189,11 -829,48 -1086,81 -37,5 -13,14 3,13zm2641 -256c-33,0 -63,-20 -60,-56 3,-31 17,-79 34,-129 -68,59 -140,106 -236,141 -51,19 -106,27 -164,27 -94,0 -158,-30 -191,-76 -23,13 -46,25 -67,36 -71,34 -132,51 -183,51 -35,0 -63,-8 -85,-27 -21,-18 -33,-43 -36,-74 -3,-48 8,-100 33,-156 26,-57 68,-122 176,-261l26 -32c-131,83 -283,168 -406,245l-1 0c-2,3 -6,7 -11,11 4,16 3,51 -3,105 -1,14 -4,36 -8,65 -5,29 -22,58 -52,87 -30,29 -63,43 -98,43l-38 -4c-45,-15 -65,-48 -60,-100l2 -15c-57,36 -104,66 -121,74 -29,18 -59,28 -91,28 -18,0 -36,-6 -56,-16 -35,-18 -55,-47 -62,-86 -4,-24 -3,-46 2,-67 18,-91 57,-172 118,-243 56,-73 109,-113 160,-121l4 -4c38,0 59,16 65,47 2,16 -7,38 -29,67 -86,102 -152,212 -200,332l13 0c15,0 25,-2 30,-7 34,-18 254,-160 352,-222l2 -53c6,-61 18,-121 35,-180 17,-60 51,-109 102,-150 28,-20 57,-30 89,-30 29,0 54,11 75,34 21,24 29,52 26,87 -2,23 -14,44 -36,61 -10,9 -20,13 -32,13 -39,0 -44,-131 -115,-22 -35,61 -57,125 -66,191l221 -130c26,-16 212,-106 269,-136l25 -30 -181 0c-16,0 -30,-14 -30,-30l0 0c0,-17 14,-30 30,-30l236 0 185 -242c7,-9 16,-16 25,-20 9,-5 21,-7 34,-7 26,0 46,4 61,10 16,7 25,14 25,24 1,5 0,9 -1,14 -1,4 -4,9 -8,15l-171 206 210 0c16,0 30,13 30,30l0 0c0,16 -14,30 -30,30l-255 0 -236 280c-57,68 -99,125 -125,173 -27,47 -38,86 -36,117 1,17 5,29 12,37 7,8 18,12 32,12 38,0 87,-15 148,-46 17,-8 35,-18 54,-29 -21,-67 4,-153 72,-232 47,-54 102,-97 166,-129 46,-27 95,-41 148,-44 21,0 39,4 56,13 40,17 58,48 54,92 -2,20 -11,42 -27,66 -35,40 -80,73 -135,96 -54,23 -112,35 -174,35 -10,18 -16,45 -19,83 2,12 12,24 32,35 19,12 41,18 64,18 85,0 168,-22 251,-66 82,-43 126,-95 183,-159 15,-33 29,-62 39,-82l99 -184c21,-49 70,-125 138,-125 21,0 32,18 22,69 -10,54 -50,124 -76,177 49,-55 107,-143 184,-138 28,1 49,16 65,32 15,17 31,35 46,55 22,32 51,57 86,75 9,3 19,4 31,4 35,0 61,-19 79,-57 4,-9 11,-13 20,-13 34,0 40,15 37,44 -23,76 -78,114 -166,114 -76,0 -145,-27 -182,-97 -113,-216 -347,328 -396,425 -8,15 -44,31 -58,31zm1734 -24c-52,0 -101,-22 -144,-66 -33,-38 -49,-80 -49,-127l0 -22c-140,120 -246,182 -319,184 -30,0 -53,-14 -71,-43 -11,-21 -17,-43 -17,-66 0,-18 2,-36 6,-55 -87,75 -183,142 -278,191 -32,20 -64,30 -96,30 -18,0 -35,-5 -53,-17 -32,-21 -48,-53 -48,-96 0,-27 4,-52 13,-75 32,-102 85,-193 158,-272 20,-24 241,-241 241,-87 0,17 -13,42 -39,74 -103,114 -187,238 -255,373l14 0c14,0 24,-3 30,-9 65,-34 321,-233 409,-299 68,-91 148,-146 240,-166 55,0 100,18 136,53 11,9 20,20 26,35 38,-44 71,-66 101,-66 38,0 58,16 61,49 0,20 -13,50 -39,89 -27,40 -49,89 -66,147l-5 9c-8,23 -13,47 -13,70 0,47 28,70 84,70 40,0 83,-12 127,-35 122,-67 225,-156 306,-267 6,-9 13,-13 22,-13l18 0c11,0 17,10 17,30 0,9 -3,16 -9,22 -122,167 -264,279 -425,338 -29,11 -56,17 -83,17zm-473 -131c26,-6 51,-16 74,-31 27,-16 265,-170 246,-228 0,-44 -16,-66 -48,-66 -35,0 -75,25 -119,75 -73,73 -124,156 -153,250zm-13 -490l-20 0c-493,0 806,-512 122,-45 -24,16 -79,45 -102,45zm-1663 325c47,-9 92,-26 135,-52 28,-18 44,-37 49,-57l-27 8c-60,21 -113,54 -157,101zm-901 251c42,-15 66,-60 74,-135l0 -42 -19 14c-23,18 -43,38 -60,59 -21,26 -33,47 -35,65 -2,26 8,39 31,39l9 0zm-137 -587c-22,-14 -26,-50 -17,-74 31,-79 148,-72 161,8 5,30 -14,51 -40,65 -38,20 -68,25 -104,1z"/>
   <g>
    <path class="fil0" d="M1459 3356l2 -14 15 0c10,0 16,-2 18,-6 3,-5 8,-27 14,-68l15 -91c7,-42 11,-69 11,-79 0,-4 -2,-6 -5,-8 -3,-2 -12,-3 -25,-3l-10 0 2 -13 34 0 36 1 109 -1c9,0 18,0 26,2l1 3c-4,25 -7,46 -8,62l-15 0 1 -26c0,-6 -1,-10 -2,-13 -8,-6 -25,-8 -52,-8 -10,0 -22,0 -37,2 -10,57 -16,96 -19,117l38 0c20,0 40,-1 58,-3l1 3 -5 20 -70 -1c-10,0 -18,1 -26,1l-9 55c-3,21 -5,34 -5,39 0,6 2,10 6,12 3,2 12,3 26,3l10 0 -3 14 -78 -2c-16,0 -33,0 -54,2zm354 -51l6 11 -35 24c-15,9 -25,14 -30,16 -5,2 -10,3 -13,3 -4,0 -8,-2 -10,-6 -3,-3 -4,-9 -4,-17 0,-12 2,-27 7,-47l26 -107c4,-17 8,-38 13,-62 2,-15 3,-24 3,-27 0,-3 -1,-5 -3,-6 -4,-2 -10,-2 -19,-2l-12 0 2 -12c29,-4 57,-10 83,-19l5 5 -14 58 -29 122c-10,40 -14,66 -14,76 0,3 0,5 1,7 1,1 3,2 4,2 2,0 5,-1 9,-3 10,-6 18,-11 24,-16zm38 -7c0,-27 6,-53 18,-78 7,-15 21,-29 42,-42 21,-13 42,-19 62,-19 15,0 28,2 38,7 10,5 17,12 22,21 5,8 7,20 7,35 0,18 -3,36 -10,55 -6,18 -14,32 -23,41 -12,11 -27,22 -47,31 -15,7 -29,10 -45,10 -22,0 -38,-5 -48,-15 -10,-11 -16,-26 -16,-46zm48 -5c0,17 3,29 9,36 7,7 16,11 28,11 9,0 17,-3 24,-9 8,-8 16,-23 23,-45 6,-21 10,-43 10,-65 0,-15 -3,-27 -10,-34 -6,-8 -15,-11 -26,-11 -9,0 -18,3 -26,10 -7,7 -14,19 -20,38 -8,27 -12,50 -12,69zm168 -78c2,-7 6,-15 10,-26 4,-11 7,-21 7,-28 10,-2 16,-2 20,-2 8,0 15,0 21,0l17 2c5,0 9,1 13,1 16,0 27,-2 35,-5l6 7c-19,20 -33,42 -43,65 -9,23 -14,45 -14,65 0,14 2,24 6,30 4,6 9,9 15,9 10,0 20,-8 32,-23 17,-21 30,-49 37,-82 8,-34 12,-54 12,-60 13,-2 28,-6 44,-11l5 4c-3,9 -8,31 -17,64 -8,31 -12,57 -12,76 0,10 3,18 7,24 4,5 10,8 17,8 8,0 16,-4 25,-12 14,-12 25,-28 34,-49 9,-21 13,-41 13,-60 0,-8 -1,-14 -5,-18 -3,-4 -8,-6 -14,-6 -4,0 -9,2 -14,5l-5 -9c9,-5 19,-13 29,-24 5,-1 8,-1 11,-1 8,0 15,3 21,10 5,6 8,16 8,29 0,23 -7,48 -22,75 -15,27 -34,49 -57,66 -18,13 -34,20 -50,20 -11,0 -20,-4 -28,-12 -7,-8 -11,-18 -11,-31 0,-10 2,-21 4,-35l-4 8c-9,14 -16,24 -22,32 -12,14 -23,23 -34,29 -10,6 -19,9 -28,9 -12,0 -23,-5 -31,-15 -8,-9 -12,-23 -12,-41 0,-11 2,-23 6,-34 4,-12 10,-23 18,-34 8,-11 23,-28 47,-52 -9,3 -20,4 -35,4l-13 0c-8,0 -15,1 -23,2l-13 27 -13 -1zm495 90l4 11 -34 22c-14,8 -26,13 -36,16 -10,3 -19,5 -27,5 -16,0 -29,-4 -37,-13 -9,-9 -14,-21 -14,-37 0,-19 4,-40 12,-65 6,-18 13,-32 23,-42 9,-10 26,-22 49,-33 13,-7 26,-10 39,-10 12,0 22,3 29,9 7,6 10,14 10,24 0,12 -3,23 -10,33 -7,10 -19,20 -37,28 -18,9 -39,15 -65,19 -3,10 -5,19 -5,27 0,11 3,19 9,24 5,6 13,8 23,8 7,0 17,-2 29,-6 12,-5 25,-11 38,-20zm-93 -44c21,-6 35,-11 44,-16 8,-5 14,-13 20,-22 5,-10 8,-19 8,-26 0,-6 -2,-10 -5,-14 -4,-3 -9,-5 -15,-5 -6,0 -12,2 -19,6 -6,5 -11,12 -16,23 -5,11 -11,29 -17,54zm139 98l-5 -5c8,-24 15,-48 21,-74 3,-13 6,-29 9,-47 1,-11 2,-20 2,-26 0,-4 0,-7 -1,-8 -1,-1 -2,-2 -3,-2 -2,0 -5,1 -10,4 -6,3 -14,8 -21,15l-5 -11c39,-31 64,-46 76,-46 3,0 6,1 8,3 2,3 3,7 3,11 0,8 -5,30 -14,69l-3 10 3 0c9,-22 20,-42 30,-57 11,-16 20,-26 27,-31 6,-4 13,-5 21,-5 3,0 7,0 11,1 -6,18 -9,36 -9,56l-5 2c-7,-5 -14,-8 -21,-8 -13,0 -24,8 -34,24 -17,28 -29,67 -36,117 -17,2 -32,5 -44,8zm251 -20c4,-19 8,-40 11,-63l13 0 -1 22 0 13c6,8 15,14 27,19 12,5 24,7 37,7 19,0 34,-5 45,-15 10,-10 15,-24 15,-42 0,-12 -3,-21 -9,-26 -6,-6 -19,-11 -40,-16 -31,-7 -51,-16 -60,-27 -9,-10 -14,-25 -14,-43 0,-26 11,-49 32,-69 22,-19 48,-29 79,-29 12,0 23,1 34,4 10,3 20,7 29,13 -5,22 -8,43 -10,60l-14 0 1 -21 -1 -12c-5,-6 -12,-12 -21,-16 -10,-4 -20,-6 -33,-6 -17,0 -31,4 -41,14 -11,9 -15,23 -15,39 0,9 2,17 6,24 4,7 10,11 17,14 11,4 24,8 39,11 28,6 45,14 53,24 8,9 11,22 11,38 0,26 -11,50 -34,71 -23,21 -51,32 -83,32 -14,0 -28,-2 -40,-5 -12,-4 -23,-9 -33,-15zm232 20l-3 -4c7,-25 15,-53 21,-84l6 -29c6,-24 14,-65 24,-122 3,-13 4,-21 4,-24 0,-4 -2,-7 -4,-9 -3,-2 -10,-2 -19,-2l-11 0 2 -12c12,-1 26,-3 41,-7 15,-3 29,-7 41,-12l5 4c-7,25 -14,52 -20,83l-25 109c21,-31 42,-54 64,-69 21,-15 39,-22 52,-22 5,0 9,1 12,4 3,2 4,7 4,13 0,5 -1,11 -2,18 -1,3 -4,16 -11,41l-8 28c-8,30 -12,48 -12,52 0,3 0,5 2,6 2,2 3,3 5,3 2,0 5,-1 8,-3 10,-6 17,-11 22,-15l5 11c-38,28 -62,42 -74,42 -5,0 -9,-2 -12,-5 -2,-3 -4,-8 -4,-15 0,-7 2,-15 4,-24l13 -50 5 -19c2,-8 5,-20 8,-36 1,-3 1,-5 1,-7 0,-2 -1,-4 -2,-5 -2,-1 -3,-2 -6,-2 -7,0 -15,4 -26,14 -17,14 -31,33 -43,57 -12,25 -20,53 -24,84 -13,1 -27,4 -43,8zm232 -61c0,-27 6,-53 18,-78 7,-15 21,-29 42,-42 21,-13 42,-19 62,-19 15,0 28,2 38,7 10,5 17,12 22,21 5,8 7,20 7,35 0,18 -3,36 -10,55 -7,18 -14,32 -23,41 -12,11 -27,22 -48,31 -14,7 -29,10 -44,10 -22,0 -38,-5 -48,-15 -10,-11 -16,-26 -16,-46zm48 -5c0,17 3,29 9,36 7,7 16,11 28,11 9,0 17,-3 23,-9 9,-8 17,-23 24,-45 6,-21 10,-43 10,-65 0,-15 -4,-27 -10,-34 -6,-8 -15,-11 -26,-11 -9,0 -18,3 -26,10 -7,7 -14,19 -20,38 -8,27 -12,50 -12,69zm158 173l-5 -4c7,-24 13,-46 18,-64 4,-16 12,-46 22,-90 12,-54 19,-88 19,-104 0,-4 -2,-6 -5,-6 -5,0 -15,5 -31,16l-5 -10c27,-20 46,-33 56,-38 10,-5 19,-7 25,-7 3,0 5,1 7,3 2,2 3,5 3,9 0,3 0,6 -1,11l-9 40 -6 22c18,-28 36,-48 54,-61 22,-16 40,-24 55,-24 6,0 11,2 14,8 6,10 9,22 9,36 0,17 -3,36 -9,56 -6,20 -13,35 -21,45 -7,10 -17,19 -30,27 -13,8 -25,16 -38,22 -9,4 -19,6 -32,6 -7,0 -15,-1 -22,-3l-6 19c-2,8 -6,23 -11,44 -1,7 -2,13 -3,19 -1,5 -1,12 -1,19 -18,1 -34,4 -47,9zm72 -138c16,8 29,12 39,12 10,0 17,-3 23,-9 9,-8 17,-25 26,-50 8,-25 13,-48 13,-70 0,-8 -1,-13 -3,-16 -2,-3 -4,-4 -7,-4 -7,0 -15,3 -25,10 -14,11 -27,26 -38,45 -11,20 -19,42 -25,68l-3 14zm266 27l3 -14 4 0c7,0 13,-1 19,-4 2,-1 4,-3 5,-8 2,-7 6,-24 10,-50l18 -105c6,-39 9,-65 9,-75 0,-4 -1,-7 -3,-8 -4,-2 -11,-4 -20,-4l-14 0 2 -13c14,1 37,1 68,1l69 -1c22,0 39,2 50,7 12,4 20,11 26,19 6,9 9,19 9,31 0,17 -6,32 -19,45 -13,13 -33,23 -61,29 27,4 45,11 55,21 10,10 15,24 15,41 0,16 -4,30 -13,43 -9,13 -22,24 -40,33 -18,8 -38,13 -59,13l-80 -3c-9,0 -26,1 -53,2zm107 -156l19 1c19,0 33,-2 44,-7 10,-5 18,-13 24,-24 6,-10 9,-23 9,-36 0,-10 -2,-17 -6,-23 -4,-7 -9,-11 -16,-14 -7,-3 -18,-4 -34,-4 -8,0 -15,0 -23,1l-8 49 -9 57zm-23 133c23,4 38,6 46,6 13,0 24,-3 32,-8 8,-5 15,-13 21,-24 5,-12 8,-25 8,-39 0,-16 -5,-29 -14,-37 -9,-9 -25,-13 -46,-13l-28 1 -9 54 -10 60zm393 -27l4 13c-33,27 -56,41 -70,41 -4,0 -7,-2 -10,-4 -3,-4 -4,-9 -4,-15 0,-8 5,-30 14,-68l4 -14c-17,26 -28,43 -34,50 -11,13 -21,23 -30,31 -9,7 -18,13 -28,16 -5,3 -10,4 -14,4 -7,0 -13,-3 -17,-8 -4,-6 -6,-15 -6,-28 0,-15 3,-34 9,-55 6,-22 12,-38 18,-50 4,-6 11,-14 22,-23 22,-16 37,-27 46,-31 8,-4 18,-5 28,-5 7,0 15,0 22,2 7,2 14,4 21,8l19 -10 6 4c-1,2 -2,6 -4,12l-7 27 -23 96c-2,9 -3,15 -3,20 0,5 2,7 5,7 6,0 16,-7 32,-20zm-52 -116c-6,-3 -12,-5 -18,-7 -5,-1 -11,-2 -16,-2 -9,0 -17,3 -23,10 -7,6 -14,21 -22,47 -10,33 -15,58 -15,74 0,5 1,8 3,11 1,2 3,3 5,3 2,0 5,-1 8,-3 9,-6 20,-17 32,-32 12,-15 21,-31 29,-47 8,-17 13,-31 15,-44l2 -10zm92 170l-5 -5c2,-8 5,-14 7,-20 6,-22 11,-37 13,-46 5,-16 8,-33 11,-50 3,-18 5,-29 5,-34 0,-4 -2,-6 -5,-6 -1,0 -4,1 -8,3 -9,4 -16,9 -22,14l-5 -11 30 -23c13,-9 24,-16 33,-19 5,-2 9,-3 14,-3 3,0 6,0 8,2 2,2 3,5 3,10 0,3 0,8 -1,14 -3,15 -7,29 -10,42l-8 30c10,-17 17,-28 21,-32 11,-14 23,-26 36,-37 12,-11 24,-19 36,-24 8,-4 15,-5 21,-5 5,0 10,1 12,4 3,4 5,8 5,14 0,9 -4,28 -12,57l-11 36c-5,20 -8,36 -8,47 0,5 2,7 5,7 2,0 5,-1 10,-3 8,-5 15,-10 20,-15l5 12c-24,17 -40,28 -48,32 -11,6 -20,9 -27,9 -5,0 -9,-2 -11,-5 -3,-3 -4,-9 -4,-17 0,-8 3,-22 8,-40l6 -23c6,-19 9,-33 10,-39 4,-15 6,-25 6,-30 0,-2 -1,-4 -2,-5 -2,-2 -4,-2 -6,-2 -7,0 -16,5 -27,17 -16,16 -29,35 -39,58 -11,22 -18,48 -23,78 -16,1 -31,4 -43,8zm422 -53l4 12 -37 27c-9,6 -16,10 -22,12 -4,1 -8,2 -11,2 -5,0 -9,-2 -12,-5 -3,-4 -5,-9 -5,-15 0,-4 1,-7 1,-11 3,-15 6,-28 9,-39l9 -32c-17,32 -37,58 -62,78 -18,16 -33,24 -45,24 -7,0 -13,-3 -18,-10 -5,-7 -7,-18 -7,-33 0,-15 2,-32 7,-51 5,-20 12,-37 20,-51 5,-8 10,-14 17,-19 20,-15 37,-25 49,-31 9,-4 19,-5 29,-5 7,0 15,1 26,4l7 -44c2,-15 3,-23 3,-25 0,-3 -1,-6 -4,-7 -2,-2 -7,-3 -15,-3 -4,0 -10,0 -16,1l3 -12c24,-1 52,-7 84,-19l5 4c-4,17 -9,37 -14,62l-35 164c-3,16 -5,27 -5,34 0,5 2,7 5,7 3,0 14,-6 30,-19zm-53 -119c-10,-6 -22,-9 -35,-9 -11,0 -19,2 -24,7 -7,6 -15,24 -23,52 -9,29 -14,54 -14,76 0,4 1,7 3,9 1,2 3,3 6,3 2,0 6,-1 11,-4 8,-5 17,-13 26,-25 12,-16 22,-31 30,-47 8,-15 13,-30 16,-45l4 -17zm276 118l5 13c-34,27 -57,41 -71,41 -4,0 -7,-2 -9,-4 -3,-4 -5,-9 -5,-15 0,-8 5,-30 14,-68l4 -14c-17,26 -28,43 -34,50 -11,13 -20,23 -30,31 -9,7 -18,13 -27,16 -6,3 -11,4 -15,4 -7,0 -12,-3 -17,-8 -4,-6 -6,-15 -6,-28 0,-15 3,-34 9,-55 6,-22 12,-38 18,-50 4,-6 11,-14 22,-23 22,-16 37,-27 46,-31 8,-4 18,-5 28,-5 8,0 15,0 22,2 7,2 14,4 21,8l19 -10 7 4c-2,2 -3,6 -5,12l-7 27 -23 96c-2,9 -3,15 -3,20 0,5 2,7 5,7 6,0 17,-7 32,-20zm-52 -116c-6,-3 -12,-5 -18,-7 -5,-1 -11,-2 -16,-2 -9,0 -17,3 -23,10 -7,6 -14,21 -21,47 -11,33 -16,58 -16,74 0,5 1,8 3,11 1,2 3,3 5,3 2,0 5,-1 9,-3 9,-6 19,-17 31,-32 12,-15 22,-31 29,-47 8,-17 13,-31 15,-44l2 -10zm97 170l-5 -5c8,-24 15,-48 21,-74 3,-13 6,-29 9,-47 1,-11 2,-20 2,-26 0,-4 0,-7 -1,-8 -1,-1 -2,-2 -3,-2 -2,0 -5,1 -9,4 -7,3 -14,8 -22,15l-5 -11c39,-31 64,-46 76,-46 3,0 6,1 8,3 2,3 3,7 3,11 0,8 -5,30 -14,69l-3 10 3 0c10,-22 20,-42 30,-57 11,-16 20,-26 27,-31 6,-4 13,-5 21,-5 3,0 7,0 11,1 -6,18 -9,36 -9,56l-5 2c-7,-5 -14,-8 -21,-8 -13,0 -24,8 -34,24 -17,28 -29,67 -36,117 -17,2 -32,5 -44,8zm238 -3l2 -14 9 0c9,0 15,-3 18,-9 2,-3 7,-30 17,-82l12 -77c3,-17 5,-33 7,-48 1,-15 2,-24 2,-27 0,-4 -1,-7 -4,-9 -2,-2 -7,-3 -14,-3l-20 0 3 -13c36,1 61,1 75,1 17,0 36,0 57,-1l-2 13 -11 0c-12,0 -19,2 -22,4 -3,2 -5,7 -7,16 -1,6 -5,29 -12,68 -11,70 -20,123 -26,158 21,1 37,2 48,2 32,0 53,-2 62,-7 4,-1 8,-10 13,-26l7 -20 14 0c-7,33 -12,58 -14,74 -33,0 -60,-1 -81,-1l-59 -1c-33,0 -58,0 -74,2zm459 -51l4 13c-33,27 -56,41 -70,41 -4,0 -8,-2 -10,-4 -3,-4 -4,-9 -4,-15 0,-8 4,-30 14,-68l3 -14c-16,26 -27,43 -34,50 -10,13 -20,23 -29,31 -9,7 -19,13 -28,16 -5,3 -10,4 -14,4 -7,0 -13,-3 -17,-8 -4,-6 -6,-15 -6,-28 0,-15 3,-34 9,-55 5,-22 12,-38 18,-50 4,-6 11,-14 22,-23 22,-16 37,-27 45,-31 9,-4 19,-5 29,-5 7,0 15,0 22,2 7,2 14,4 21,8l19 -10 6 4c-1,2 -2,6 -4,12l-8 27 -22 96c-2,9 -3,15 -3,20 0,5 2,7 5,7 5,0 16,-7 32,-20zm-53 -116c-6,-3 -11,-5 -17,-7 -5,-1 -11,-2 -16,-2 -9,0 -17,3 -24,10 -6,6 -13,21 -21,47 -10,33 -15,58 -15,74 0,5 1,8 2,11 2,2 4,3 6,3 2,0 5,-1 8,-3 9,-6 20,-17 32,-32 11,-15 21,-31 29,-47 8,-17 13,-31 15,-44l1 -10z"/>
    <path class="fil0" d="M5812 3359l-4 -5 5 -16c3,-9 6,-22 11,-39 7,-24 12,-46 16,-68 2,-12 3,-20 3,-24 0,-4 -1,-7 -2,-9 -1,-1 -2,-2 -3,-2 -5,0 -16,7 -32,21l-6 -10c23,-18 38,-29 44,-33 9,-6 17,-11 23,-13 5,-2 9,-2 12,-2 3,0 6,1 8,3 3,2 4,5 4,9 0,4 -1,9 -3,17 -4,20 -7,33 -9,38l-8 36c17,-30 36,-54 55,-71 25,-22 45,-32 59,-32 5,0 8,1 11,4 3,3 4,7 4,12 0,5 -1,14 -4,25 -7,26 -13,47 -17,62 13,-24 27,-43 42,-59 14,-15 29,-26 43,-33 14,-8 25,-11 34,-11 5,0 8,1 11,4 3,4 4,9 4,16 0,7 -3,22 -9,45l-9 31c-2,10 -6,24 -9,44 -2,11 -3,18 -3,20 0,5 1,7 4,7 2,0 4,-1 7,-3 10,-6 18,-11 24,-16l6 10 -35 24c-10,7 -19,12 -26,14 -6,3 -12,4 -15,4 -5,0 -8,-2 -11,-5 -3,-3 -4,-7 -4,-13 0,-5 1,-13 4,-24l21 -88c3,-11 4,-18 4,-22 0,-3 0,-5 -2,-7 -1,-1 -2,-2 -4,-2 -3,0 -7,1 -10,3 -8,4 -17,11 -27,22 -10,11 -18,23 -26,36 -7,13 -14,29 -19,49 -6,19 -9,35 -10,46 -9,0 -24,1 -43,5l-5 -5c3,-8 9,-28 19,-58 4,-14 9,-34 14,-59 4,-18 6,-30 6,-35 0,-3 -1,-6 -2,-7 -2,-2 -3,-3 -6,-3 -4,0 -10,3 -18,9 -12,10 -25,26 -40,49 -10,17 -18,36 -23,56 -6,20 -9,35 -9,46 -13,0 -28,2 -45,7zm319 107l-4 -4c7,-24 13,-46 17,-64 4,-16 12,-46 22,-90 13,-54 19,-88 19,-104 0,-4 -2,-6 -5,-6 -5,0 -15,5 -31,16l-5 -10c27,-20 46,-33 56,-38 10,-5 19,-7 25,-7 3,0 6,1 8,3 1,2 2,5 2,9 0,3 0,6 -1,11l-9 40 -6 22c19,-28 37,-48 54,-61 22,-16 40,-24 55,-24 7,0 12,2 15,8 6,10 9,22 9,36 0,17 -4,36 -10,56 -6,20 -13,35 -20,45 -8,10 -18,19 -31,27 -12,8 -25,16 -38,22 -8,4 -19,6 -32,6 -7,0 -14,-1 -22,-3l-5 19c-3,8 -6,23 -11,44 -2,7 -3,13 -4,19 0,5 -1,12 -1,19 -18,1 -33,4 -47,9zm72 -138c16,8 29,12 39,12 10,0 17,-3 24,-9 8,-8 16,-25 25,-50 9,-25 13,-48 13,-70 0,-8 -1,-13 -3,-16 -1,-3 -4,-4 -7,-4 -7,0 -15,3 -25,10 -14,11 -27,26 -38,45 -10,20 -19,42 -25,68l-3 14zm177 -117l-5 -11c18,-13 34,-23 47,-31 14,-7 24,-10 31,-10 5,0 8,1 10,3 3,3 4,7 4,12 0,7 -3,20 -8,37l-11 44c-5,16 -9,32 -11,47 -2,7 -2,11 -2,14 0,3 0,6 1,7 2,1 3,2 6,2 2,0 6,-1 11,-4 6,-5 15,-13 26,-27 11,-13 20,-28 28,-44 8,-17 14,-32 17,-47 4,-16 6,-28 7,-36 14,-1 28,-4 44,-8l3 4c-7,20 -14,47 -23,80 -11,39 -16,64 -16,74 0,5 2,7 6,7 1,0 4,-1 7,-3 9,-5 16,-10 23,-15l4 11 -37 26c-10,7 -17,11 -22,13 -6,2 -10,3 -14,3 -4,0 -7,-2 -9,-4 -2,-3 -4,-7 -4,-13 0,-7 3,-19 7,-36l12 -44c-16,29 -37,54 -62,75 -18,15 -33,22 -45,22 -5,0 -10,-2 -13,-6 -4,-4 -5,-10 -5,-19 0,-5 0,-9 1,-14 1,-6 4,-17 9,-34l5 -21c10,-33 14,-53 14,-61 0,-3 -1,-5 -2,-6 -1,-2 -2,-3 -4,-3 -4,0 -14,6 -30,16zm229 148l-5 -5c3,-8 5,-14 7,-20 7,-22 11,-37 14,-46 4,-16 8,-33 11,-50 3,-18 5,-29 5,-34 0,-4 -2,-6 -5,-6 -2,0 -5,1 -9,3 -8,4 -15,9 -21,14l-6 -11 31 -23c13,-9 24,-16 33,-19 4,-2 9,-3 13,-3 4,0 7,0 9,2 2,2 3,5 3,10 0,3 -1,8 -2,14 -3,15 -6,29 -9,42l-9 30c11,-17 18,-28 22,-32 11,-14 22,-26 35,-37 13,-11 25,-19 36,-24 8,-4 15,-5 21,-5 6,0 10,1 13,4 3,4 5,8 5,14 0,9 -5,28 -13,57l-10 36c-5,20 -8,36 -8,47 0,5 1,7 5,7 2,0 5,-1 10,-3 8,-5 15,-10 19,-15l5 12c-23,17 -39,28 -48,32 -11,6 -20,9 -27,9 -5,0 -8,-2 -11,-5 -2,-3 -3,-9 -3,-17 0,-8 2,-22 8,-40l6 -23c5,-19 9,-33 10,-39 4,-15 5,-25 5,-30 0,-2 0,-4 -2,-5 -1,-2 -3,-2 -5,-2 -7,0 -16,5 -28,17 -15,16 -28,35 -39,58 -10,22 -17,48 -22,78 -17,1 -31,4 -44,8zm268 -11c-7,-6 -10,-13 -10,-19 0,-6 2,-10 6,-13l16 -9c7,-4 12,-8 17,-11l-9 0c-11,0 -21,-2 -31,-7 -7,-4 -13,-9 -17,-16 -4,-7 -7,-16 -7,-27 0,-13 3,-26 10,-38 6,-11 13,-20 21,-25 8,-6 22,-12 42,-20 9,-3 18,-4 26,-4 11,0 20,1 28,5 5,2 9,3 13,4 4,0 9,1 15,1l39 -2 2 3 -4 21c-8,-1 -18,-2 -31,-2l-5 1c3,7 4,14 4,22 0,11 -2,22 -7,33 -5,11 -11,19 -18,25 -7,6 -19,12 -36,19 -12,5 -20,9 -23,12 -4,4 -6,7 -6,9 0,3 1,5 3,8 3,3 8,8 16,13l27 19c11,9 19,16 24,23 4,7 6,15 6,24 0,19 -8,34 -25,47 -21,15 -47,23 -80,23 -29,0 -51,-5 -65,-15 -14,-10 -21,-22 -21,-37 0,-9 4,-18 10,-28 7,-9 17,-17 30,-23 6,-3 19,-8 40,-16zm7 -103c0,13 2,22 8,28 5,6 13,9 23,9 8,0 15,-2 21,-7 6,-5 12,-13 16,-25 5,-12 7,-24 7,-38 0,-12 -3,-22 -8,-27 -6,-6 -13,-9 -23,-9 -14,0 -25,7 -33,21 -8,15 -11,30 -11,48zm2 111l-20 9c-8,4 -14,9 -19,13 -5,4 -8,9 -11,14 -2,5 -3,11 -3,17 0,12 5,22 15,30 10,8 24,12 42,12 17,0 31,-4 41,-12 9,-7 14,-17 14,-27 0,-6 -2,-12 -6,-17 -4,-5 -16,-14 -35,-27l-18 -12z"/>
   </g>
  </g>
 </g>
</svg>
