<?xml version="1.0" encoding="UTF-8"?>
<!DOCTYPE svg PUBLIC "-//W3C//DTD SVG 1.1//EN" "http://www.w3.org/Graphics/SVG/1.1/DTD/svg11.dtd">
<!-- Creator: CorelDRAW X7 -->
<svg xmlns="http://www.w3.org/2000/svg" xml:space="preserve" width="68.6908mm" height="15.8589mm" version="1.1" style="shape-rendering:geometricPrecision; text-rendering:geometricPrecision; image-rendering:optimizeQuality; fill-rule:evenodd; clip-rule:evenodd"
viewBox="0 0 420 97"
 xmlns:xlink="http://www.w3.org/1999/xlink">
 <defs>
  <style type="text/css">
   <![CDATA[
    .fil0 {fill:#D1D5DB}
    .fil1 {fill:#D1D5DB;fill-rule:nonzero}
   ]]>
  </style>
 </defs>
 <g id="Layer_x0020_1">
  <metadata id="CorelCorpID_0Corel-Layer"/>
  <g id="_2555199131600">
   <path class="fil0" d="M82 13c-4,-1 -8,0 -11,0 -3,1 -7,2 -9,4 -2,1 -7,6 -8,7 0,1 0,0 0,0 0,-3 -1,-6 -3,-9 -1,-4 -5,-8 -9,-10 -2,-1 -5,-3 -8,-4l-3 -1 0 1c-4,9 -5,16 -4,23 0,4 3,9 5,12 2,3 2,3 0,2 -3,-1 -5,-1 -8,-1 -5,-1 -9,1 -13,3 -3,1 -5,3 -7,6 -2,2 -4,4 -4,4 0,0 6,6 8,7 6,5 13,6 21,5 2,0 6,-1 7,-2l1 0 0 1c-2,2 -2,5 -3,9 0,6 1,11 4,17 2,2 4,4 6,7l3 3 0 0c1,-1 4,-4 6,-6 2,-2 2,-2 3,-4 3,-5 5,-9 4,-14 0,-4 -1,-7 -3,-10 -1,-2 -6,-7 -8,-8 0,0 1,0 3,1 5,1 10,5 12,10l1 1 1 1c1,1 5,2 7,2 4,1 9,1 13,0 3,-1 11,-4 11,-4 0,-1 -2,-5 -2,-7 -3,-6 -7,-11 -13,-14 -7,-3 -15,-3 -23,1 -1,0 -3,1 -3,2 -1,0 -1,0 -1,0 0,0 0,-1 1,-2 4,-5 11,-7 19,-6l1 0 1 -2c2,-2 4,-4 5,-7 1,-3 2,-6 2,-9 0,-2 0,-9 0,-9 0,0 -1,0 -2,0l0 0zm-9 10c-3,2 -7,4 -10,8 -3,3 -7,8 -11,15 -2,4 -3,5 -3,6 0,0 1,-7 2,-11 1,-3 3,-9 4,-11 2,-4 5,-8 9,-10l1 -1 -1 1c-2,3 -4,6 -6,10 0,1 0,2 0,2 4,-6 8,-9 13,-10 2,0 4,0 4,0 0,0 -1,0 -2,1l0 0zm11 37c0,1 -5,0 -8,0 -2,-1 -8,-3 -11,-4 -2,-1 -7,-2 -9,-3l-2 0 1 0c7,-1 13,-1 19,1 3,1 7,3 10,5 0,1 0,1 0,1l0 0zm-37 -33c1,4 2,6 2,10 -1,2 -1,6 -2,8 0,0 0,-1 0,-2 0,-3 0,-8 -1,-11 -1,-3 -1,-5 -3,-8l-1 -2 2 2c2,2 2,2 3,3l0 0zm-6 4c2,4 3,10 4,15 0,1 0,2 0,2 0,0 0,-1 -1,-2 0,-1 -1,-3 -2,-5 -2,-6 -3,-10 -3,-13 0,-1 0,-2 0,-2 0,0 1,4 2,5l0 0zm5 22c0,0 -12,0 -13,0 -4,-1 -9,-2 -11,-4l-1 0 2 -1c3,0 8,0 11,1 4,0 7,2 10,3 1,1 2,1 2,1zm-1 13c0,2 2,10 2,12 1,0 1,0 1,0 0,0 0,0 0,-1 1,-3 2,-6 2,-9 0,-3 -1,-8 -2,-11l-1 -1 0 0c-2,3 -2,7 -2,10z"/>
   <path class="fil1" d="M150 35l-17 0 0 11 15 0 0 8 -15 0 0 18 -10 0 0 -45 27 0 0 8zm16 37l-10 0 0 -48 10 0 0 48zm24 1c-5,0 -10,-2 -13,-5 -3,-3 -4,-7 -4,-12 0,-5 1,-10 4,-13 4,-3 8,-4 14,-4 5,0 9,1 12,4 3,3 5,7 5,12 0,6 -2,10 -5,13 -3,3 -7,5 -13,5zm0 -27c-2,0 -4,1 -5,3 -2,2 -2,4 -2,7 0,6 2,9 7,9 5,0 8,-3 8,-9 0,-6 -3,-10 -8,-10zm46 3c-2,-1 -3,-1 -5,-1 -2,0 -3,0 -5,2 -1,2 -2,4 -2,7l0 15 -10 0 0 -32 10 0 0 6 1 0c1,-5 4,-7 8,-7 1,0 2,0 3,0l0 10zm10 -15c-2,0 -3,0 -5,-1 -1,-1 -1,-2 -1,-4 0,-1 0,-3 1,-3 2,-1 3,-2 5,-2 1,0 3,1 4,2 1,0 1,2 1,3 0,2 0,3 -1,4 -1,1 -3,1 -4,1zm5 38l-10 0 0 -32 10 0 0 32zm6 -1l0 -8c2,1 3,2 5,2 2,1 3,1 5,1 1,0 3,0 4,-1 1,0 1,-1 1,-2 0,0 0,-1 0,-1 -1,-1 -1,-1 -2,-2 -1,0 -2,0 -3,0 0,-1 -1,-1 -2,-1 -1,-1 -3,-1 -4,-2 -1,0 -1,-1 -2,-2 -1,-1 -1,-1 -2,-2 0,-1 0,-3 0,-4 0,-2 0,-3 1,-5 1,-1 2,-2 3,-3 2,-1 3,-1 5,-2 2,0 3,0 5,0 2,0 3,0 5,0 1,0 3,1 4,1l0 8c-1,-1 -3,-1 -4,-2 -2,0 -3,0 -4,0 -1,0 -2,0 -2,0 -1,0 -1,0 -2,0 0,1 -1,1 -1,1 0,1 0,1 0,1 0,1 0,1 0,2 1,0 1,1 2,1 0,0 1,1 2,1 1,0 1,0 2,1 1,0 3,1 4,1 1,1 2,1 3,2 0,1 1,2 1,3 1,1 1,2 1,3 0,2 0,4 -1,5 -1,2 -2,3 -4,3 -1,1 -3,2 -4,2 -2,1 -4,1 -6,1 -4,0 -7,-1 -10,-2zm50 1c-1,1 -3,1 -6,1 -7,0 -11,-4 -11,-11l0 -15 -5 0 0 -7 5 0 0 -7 10 -3 0 10 7 0 0 7 -7 0 0 13c0,4 1,5 4,5 1,0 2,0 3,-1l0 8zm35 -13l-21 0c0,4 3,7 9,7 3,0 7,-1 9,-3l0 8c-3,1 -7,2 -11,2 -6,0 -10,-2 -13,-4 -3,-3 -4,-7 -4,-13 0,-5 1,-9 5,-12 3,-4 7,-5 11,-5 5,0 9,1 11,4 3,3 4,7 4,12l0 4zm-9 -6c0,-5 -2,-7 -6,-7 -1,0 -3,0 -4,2 -1,1 -2,3 -2,5l12 0zm36 -4c-1,-1 -2,-1 -4,-1 -2,0 -4,0 -5,2 -1,2 -2,4 -2,7l0 15 -10 0 0 -32 10 0 0 6 0 0c2,-5 5,-7 9,-7 1,0 2,0 2,0l0 10zm15 23l-10 0 0 -32 10 0 0 32zm5 -48l-10 10 -7 0 8 -10 9 0zm31 48l-10 0 0 -5 0 0c-2,4 -5,6 -10,6 -3,0 -5,-1 -7,-3 -2,-2 -3,-4 -3,-7 0,-6 4,-10 11,-11l9 -1c0,-4 -2,-5 -6,-5 -3,0 -7,1 -11,3l0 -7c2,-1 4,-2 6,-2 3,-1 5,-1 7,-1 9,0 14,4 14,14l0 19zm-10 -13l0 -2 -6 0c-3,1 -5,2 -5,5 0,1 1,2 2,3 0,0 1,1 3,1 2,0 3,-1 4,-2 2,-1 2,-3 2,-5z"/>
  </g>
 </g>
</svg>
